<svg width="24" height="25" viewBox="0 0 24 25" fill="none" xmlns="http://www.w3.org/2000/svg">
<path d="M3.80222 6.04602L0.146667 2.50535L1.74168 0.959991L5.39611 4.50175H22.5771C22.7528 4.50174 22.9261 4.54152 23.0831 4.61792C23.2401 4.69431 23.3765 4.80521 23.4814 4.94176C23.5863 5.07831 23.6568 5.23673 23.6873 5.40438C23.7178 5.57202 23.7074 5.74425 23.657 5.90732L20.9517 14.6443C20.8821 14.8694 20.7394 15.0667 20.5449 15.207C20.3503 15.3473 20.1143 15.423 19.8718 15.423H6.05665V17.6072H18.456V19.7915H4.92944C4.63048 19.7915 4.34377 19.6764 4.13238 19.4716C3.92098 19.2668 3.80222 18.989 3.80222 18.6994V6.04602ZM6.05665 6.686V13.2387H19.0331L21.0621 6.686H6.05665ZM5.49305 24.16C5.04461 24.16 4.61455 23.9874 4.29745 23.6802C3.98036 23.373 3.80222 22.9563 3.80222 22.5218C3.80222 22.0873 3.98036 21.6707 4.29745 21.3634C4.61455 21.0562 5.04461 20.8836 5.49305 20.8836C5.94148 20.8836 6.37155 21.0562 6.68864 21.3634C7.00573 21.6707 7.18387 22.0873 7.18387 22.5218C7.18387 22.9563 7.00573 23.373 6.68864 23.6802C6.37155 23.9874 5.94148 24.16 5.49305 24.16ZM19.0196 24.16C18.5712 24.16 18.1411 23.9874 17.824 23.6802C17.5069 23.373 17.3288 22.9563 17.3288 22.5218C17.3288 22.0873 17.5069 21.6707 17.824 21.3634C18.1411 21.0562 18.5712 20.8836 19.0196 20.8836C19.4681 20.8836 19.8981 21.0562 20.2152 21.3634C20.5323 21.6707 20.7104 22.0873 20.7104 22.5218C20.7104 22.9563 20.5323 23.373 20.2152 23.6802C19.8981 23.9874 19.4681 24.16 19.0196 24.16Z" fill="#838383"/>
</svg>
