<svg width="23" height="20" viewBox="0 0 23 20" fill="none" xmlns="http://www.w3.org/2000/svg">
<path d="M11.284 1.65429C13.8679 -0.627558 17.8608 -0.551821 20.3501 1.90098C22.8382 4.35487 22.924 8.2629 20.6097 10.812L11.2818 20L1.95622 10.812C-0.358139 8.2629 -0.271241 4.34837 2.21581 1.90098C4.70727 -0.548575 8.69249 -0.630804 11.284 1.65429ZM18.7925 3.42979C17.1425 1.80469 14.4806 1.73869 12.7536 3.26425L11.2851 4.56044L9.81557 3.26533C8.0831 1.73761 5.42665 1.80469 3.77228 3.43195C2.13331 5.04407 2.05082 7.62455 3.56109 9.32971L11.2829 16.937L19.0048 9.3308C20.5162 7.62455 20.4337 5.04732 18.7925 3.42979Z" fill="#838383"/>
</svg>
